<svg width="47" height="47" viewBox="0 0 47 47" fill="none" xmlns="http://www.w3.org/2000/svg">
<path d="M17.6364 47C16.9051 47 16.1737 46.6757 15.6032 46.0225L2.62188 31.1525C-0.866078 26.9744 -0.866078 20.2655 2.57483 16.1415L15.5875 0.998925C16.7521 -0.354601 18.6147 -0.324053 19.746 1.07177C20.8773 2.46759 20.8498 4.69997 19.6852 6.05585L6.70391 21.1632C6.17846 21.7929 5.8726 22.6788 5.8726 23.6188C5.8726 24.5587 6.17846 25.4446 6.73332 26.112L19.6676 40.9279C20.842 42.2721 20.8832 44.5021 19.7617 45.9097C19.1833 46.6358 18.4108 47 17.6364 47ZM31.451 45.999L44.4264 30.854C47.8653 26.73 47.8653 20.0235 44.3813 15.8454L31.4333 0.982476C30.2589 -0.3687 28.3983 -0.319353 27.2748 1.08822C26.1514 2.49344 26.1906 4.72582 27.3631 6.0723L40.264 20.8835C41.411 22.2582 41.411 24.4953 40.2934 25.8371L27.3454 40.9514C26.1808 42.3097 26.1573 44.5397 27.2905 45.9355C27.8669 46.6452 28.6316 47 29.3982 47C30.1373 47 30.8804 46.6663 31.451 45.999Z" fill="white"/>
</svg>
